<svg width="140" height="40" viewBox="0 0 140 40" fill="none" xmlns="http://www.w3.org/2000/svg">
<path d="M10.9858 5.56534C10.9176 4.87784 10.625 4.34375 10.108 3.96307C9.59091 3.58239 8.8892 3.39204 8.00284 3.39204C7.40057 3.39204 6.89205 3.47727 6.47727 3.64773C6.0625 3.8125 5.74432 4.04261 5.52273 4.33807C5.30682 4.63352 5.19886 4.96875 5.19886 5.34375C5.1875 5.65625 5.25284 5.92898 5.39489 6.16193C5.54261 6.39489 5.74432 6.59659 6 6.76705C6.25568 6.93182 6.55114 7.0767 6.88636 7.2017C7.22159 7.32102 7.57955 7.4233 7.96023 7.50852L9.52841 7.88352C10.2898 8.05398 10.9886 8.28125 11.625 8.56534C12.2614 8.84943 12.8125 9.19886 13.2784 9.61364C13.7443 10.0284 14.1051 10.517 14.3608 11.0795C14.6222 11.642 14.7557 12.2869 14.7614 13.0142C14.7557 14.0824 14.483 15.0085 13.9432 15.7926C13.4091 16.571 12.6364 17.1761 11.625 17.608C10.6193 18.0341 9.40625 18.2472 7.9858 18.2472C6.5767 18.2472 5.34943 18.0312 4.30398 17.5994C3.2642 17.1676 2.4517 16.5284 1.86648 15.6818C1.28693 14.8295 0.982955 13.7756 0.954545 12.5199H4.52557C4.56534 13.1051 4.73295 13.5937 5.02841 13.9858C5.32955 14.3722 5.73011 14.6648 6.23011 14.8636C6.7358 15.0568 7.30682 15.1534 7.94318 15.1534C8.56818 15.1534 9.1108 15.0625 9.57102 14.8807C10.0369 14.6989 10.3977 14.446 10.6534 14.1222C10.9091 13.7983 11.0369 13.4261 11.0369 13.0057C11.0369 12.6136 10.9205 12.2841 10.6875 12.017C10.4602 11.75 10.125 11.5227 9.68182 11.3352C9.24432 11.1477 8.70739 10.9773 8.07102 10.8239L6.17045 10.3466C4.69886 9.98864 3.53693 9.42898 2.68466 8.66761C1.83239 7.90625 1.40909 6.88068 1.41477 5.59091C1.40909 4.53409 1.69034 3.6108 2.25852 2.82102C2.83239 2.03125 3.61932 1.41477 4.61932 0.971591C5.61932 0.528409 6.75568 0.306818 8.02841 0.306818C9.32386 0.306818 10.4545 0.528409 11.4205 0.971591C12.392 1.41477 13.1477 2.03125 13.6875 2.82102C14.2273 3.6108 14.5057 4.52557 14.5227 5.56534H10.9858ZM17.0036 18V0.545454H28.765V3.58807H20.6939V7.74716H28.1599V10.7898H20.6939V14.9574H28.7991V18H17.0036ZM34.4674 18H30.5129L36.5385 0.545454H41.2941L47.3112 18H43.3566L38.9845 4.53409H38.8481L34.4674 18ZM34.2203 11.1392H43.5612V14.0199H34.2203V11.1392ZM49.172 18V0.545454H56.0584C57.3766 0.545454 58.5016 0.78125 59.4334 1.25284C60.3709 1.71875 61.084 2.38068 61.5726 3.23864C62.0669 4.09091 62.3141 5.09375 62.3141 6.24716C62.3141 7.40625 62.0641 8.40341 61.5641 9.23864C61.0641 10.0682 60.3397 10.7045 59.3908 11.1477C58.4476 11.5909 57.3056 11.8125 55.9647 11.8125H51.3539V8.84659H55.3681C56.0726 8.84659 56.6578 8.75 57.1237 8.55682C57.5897 8.36364 57.9362 8.07386 58.1635 7.6875C58.3965 7.30114 58.513 6.82102 58.513 6.24716C58.513 5.66761 58.3965 5.17898 58.1635 4.78125C57.9362 4.38352 57.5868 4.08239 57.1152 3.87784C56.6493 3.66761 56.0612 3.5625 55.351 3.5625H52.8624V18H49.172ZM58.5982 10.0568L62.9362 18H58.8624L54.6181 10.0568H58.5982ZM80.0826 6.65625H76.3497C76.2815 6.1733 76.1423 5.74432 75.932 5.36932C75.7218 4.98864 75.4519 4.66477 75.1224 4.39773C74.7928 4.13068 74.4122 3.92614 73.9803 3.78409C73.5542 3.64205 73.0911 3.57102 72.5911 3.57102C71.6877 3.57102 70.9008 3.79545 70.2303 4.24432C69.5599 4.6875 69.04 5.33523 68.6707 6.1875C68.3014 7.03409 68.1167 8.0625 68.1167 9.27273C68.1167 10.517 68.3014 11.5625 68.6707 12.4091C69.0457 13.2557 69.5684 13.8949 70.2389 14.3267C70.9093 14.7585 71.6849 14.9744 72.5656 14.9744C73.0599 14.9744 73.5173 14.9091 73.9377 14.7784C74.3639 14.6477 74.7417 14.4574 75.0713 14.2074C75.4008 13.9517 75.6735 13.642 75.8894 13.2784C76.111 12.9148 76.2644 12.5 76.3497 12.0341L80.0826 12.0511C79.986 12.8523 79.7445 13.625 79.3582 14.3693C78.9775 15.108 78.4633 15.7699 77.8156 16.3551C77.1735 16.9347 76.4065 17.3949 75.5144 17.7358C74.6281 18.071 73.6252 18.2386 72.5059 18.2386C70.9491 18.2386 69.557 17.8864 68.3298 17.1818C67.1082 16.4773 66.1423 15.4574 65.432 14.1222C64.7275 12.7869 64.3752 11.1705 64.3752 9.27273C64.3752 7.36932 64.7332 5.75 65.4491 4.41477C66.165 3.07955 67.1366 2.0625 68.3639 1.36364C69.5911 0.659091 70.9718 0.306818 72.5059 0.306818C73.5173 0.306818 74.4548 0.448863 75.3184 0.732954C76.1877 1.01705 76.9576 1.43182 77.6281 1.97727C78.2985 2.51704 78.844 3.17898 79.2644 3.96307C79.6906 4.74716 79.9633 5.64489 80.0826 6.65625ZM82.4889 18V0.545454H86.1793V7.74716H93.6707V0.545454H97.3526V18H93.6707V10.7898H86.1793V18H82.4889ZM103.846 0.545454V18H100.155V0.545454H103.846ZM121.241 0.545454V18H118.054L110.46 7.0142H110.332V18H106.642V0.545454H109.88L117.414 11.5227H117.568V0.545454H121.241ZM135.624 6.1875C135.505 5.77273 135.337 5.40625 135.121 5.08807C134.905 4.7642 134.641 4.49148 134.329 4.26989C134.022 4.04261 133.669 3.86932 133.272 3.75C132.88 3.63068 132.445 3.57102 131.968 3.57102C131.076 3.57102 130.292 3.79261 129.616 4.23579C128.945 4.67898 128.422 5.32386 128.047 6.17045C127.672 7.01136 127.485 8.03977 127.485 9.25568C127.485 10.4716 127.669 11.5057 128.039 12.358C128.408 13.2102 128.931 13.8608 129.607 14.3097C130.283 14.7528 131.081 14.9744 132.002 14.9744C132.837 14.9744 133.55 14.8267 134.141 14.5312C134.738 14.2301 135.192 13.8068 135.505 13.2614C135.823 12.7159 135.982 12.071 135.982 11.3267L136.732 11.4375H132.232V8.65909H139.536V10.858C139.536 12.392 139.212 13.7102 138.564 14.8125C137.917 15.9091 137.025 16.7557 135.888 17.3523C134.752 17.9432 133.451 18.2386 131.985 18.2386C130.348 18.2386 128.911 17.8778 127.672 17.1562C126.434 16.429 125.468 15.3977 124.775 14.0625C124.087 12.7216 123.743 11.1307 123.743 9.28977C123.743 7.875 123.948 6.61364 124.357 5.50568C124.772 4.39205 125.351 3.44886 126.096 2.67614C126.84 1.90341 127.706 1.31534 128.695 0.911931C129.684 0.508522 130.755 0.306818 131.908 0.306818C132.897 0.306818 133.817 0.451704 134.669 0.741477C135.522 1.02557 136.277 1.42898 136.937 1.9517C137.601 2.47443 138.144 3.09659 138.564 3.81818C138.985 4.53409 139.255 5.32386 139.374 6.1875H135.624ZM10.9858 26.5653C10.9176 25.8778 10.625 25.3437 10.108 24.9631C9.59091 24.5824 8.8892 24.392 8.00284 24.392C7.40057 24.392 6.89205 24.4773 6.47727 24.6477C6.0625 24.8125 5.74432 25.0426 5.52273 25.3381C5.30682 25.6335 5.19886 25.9688 5.19886 26.3438C5.1875 26.6562 5.25284 26.929 5.39489 27.1619C5.54261 27.3949 5.74432 27.5966 6 27.767C6.25568 27.9318 6.55114 28.0767 6.88636 28.2017C7.22159 28.321 7.57955 28.4233 7.96023 28.5085L9.52841 28.8835C10.2898 29.054 10.9886 29.2812 11.625 29.5653C12.2614 29.8494 12.8125 30.1989 13.2784 30.6136C13.7443 31.0284 14.1051 31.517 14.3608 32.0795C14.6222 32.642 14.7557 33.2869 14.7614 34.0142C14.7557 35.0824 14.483 36.0085 13.9432 36.7926C13.4091 37.571 12.6364 38.1761 11.625 38.608C10.6193 39.0341 9.40625 39.2472 7.9858 39.2472C6.5767 39.2472 5.34943 39.0312 4.30398 38.5994C3.2642 38.1676 2.4517 37.5284 1.86648 36.6818C1.28693 35.8295 0.982955 34.7756 0.954545 33.5199H4.52557C4.56534 34.1051 4.73295 34.5937 5.02841 34.9858C5.32955 35.3722 5.73011 35.6648 6.23011 35.8636C6.7358 36.0568 7.30682 36.1534 7.94318 36.1534C8.56818 36.1534 9.1108 36.0625 9.57102 35.8807C10.0369 35.6989 10.3977 35.446 10.6534 35.1222C10.9091 34.7983 11.0369 34.4261 11.0369 34.0057C11.0369 33.6136 10.9205 33.2841 10.6875 33.017C10.4602 32.75 10.125 32.5227 9.68182 32.3352C9.24432 32.1477 8.70739 31.9773 8.07102 31.8239L6.17045 31.3466C4.69886 30.9886 3.53693 30.429 2.68466 29.6676C1.83239 28.9062 1.40909 27.8807 1.41477 26.5909C1.40909 25.5341 1.69034 24.6108 2.25852 23.821C2.83239 23.0312 3.61932 22.4148 4.61932 21.9716C5.61932 21.5284 6.75568 21.3068 8.02841 21.3068C9.32386 21.3068 10.4545 21.5284 11.4205 21.9716C12.392 22.4148 13.1477 23.0312 13.6875 23.821C14.2273 24.6108 14.5057 25.5256 14.5227 26.5653H10.9858ZM33.0434 30.2727C33.0434 32.1761 32.6826 33.7955 31.961 35.1307C31.2451 36.4659 30.2678 37.4858 29.0292 38.1903C27.7962 38.8892 26.4099 39.2386 24.8701 39.2386C23.3189 39.2386 21.9269 38.8864 20.6939 38.1818C19.461 37.4773 18.4866 36.4574 17.7707 35.1222C17.0547 33.7869 16.6968 32.1705 16.6968 30.2727C16.6968 28.3693 17.0547 26.75 17.7707 25.4148C18.4866 24.0795 19.461 23.0625 20.6939 22.3636C21.9269 21.6591 23.3189 21.3068 24.8701 21.3068C26.4099 21.3068 27.7962 21.6591 29.0292 22.3636C30.2678 23.0625 31.2451 24.0795 31.961 25.4148C32.6826 26.75 33.0434 28.3693 33.0434 30.2727ZM29.3019 30.2727C29.3019 29.0398 29.1172 28 28.7479 27.1534C28.3843 26.3068 27.8701 25.6648 27.2053 25.2273C26.5405 24.7898 25.7621 24.571 24.8701 24.571C23.978 24.571 23.1996 24.7898 22.5349 25.2273C21.8701 25.6648 21.353 26.3068 20.9837 27.1534C20.6201 28 20.4383 29.0398 20.4383 30.2727C20.4383 31.5057 20.6201 32.5455 20.9837 33.392C21.353 34.2386 21.8701 34.8807 22.5349 35.3182C23.1996 35.7557 23.978 35.9744 24.8701 35.9744C25.7621 35.9744 26.5405 35.7557 27.2053 35.3182C27.8701 34.8807 28.3843 34.2386 28.7479 33.392C29.1172 32.5455 29.3019 31.5057 29.3019 30.2727ZM35.537 39V21.5455H39.2274V35.9574H46.7103V39H35.537ZM59.6955 21.5455H63.3858V32.8807C63.3858 34.1534 63.0818 35.267 62.4739 36.2216C61.8716 37.1761 61.0279 37.9205 59.9426 38.4545C58.8574 38.983 57.5932 39.2472 56.15 39.2472C54.7012 39.2472 53.4341 38.983 52.3489 38.4545C51.2637 37.9205 50.4199 37.1761 49.8176 36.2216C49.2154 35.267 48.9142 34.1534 48.9142 32.8807V21.5455H52.6046V32.5653C52.6046 33.2301 52.7495 33.821 53.0392 34.3381C53.3347 34.8551 53.7495 35.2614 54.2835 35.5568C54.8176 35.8523 55.4398 36 56.15 36C56.8659 36 57.4881 35.8523 58.0165 35.5568C58.5506 35.2614 58.9625 34.8551 59.2523 34.3381C59.5478 33.821 59.6955 33.2301 59.6955 32.5653V21.5455ZM65.5173 24.5881V21.5455H79.8525V24.5881H74.5088V39H70.861V24.5881H65.5173ZM85.6636 21.5455V39H81.9733V21.5455H85.6636ZM104.5 30.2727C104.5 32.1761 104.139 33.7955 103.417 35.1307C102.701 36.4659 101.724 37.4858 100.485 38.1903C99.2525 38.8892 97.8661 39.2386 96.3263 39.2386C94.7752 39.2386 93.3832 38.8864 92.1502 38.1818C90.9172 37.4773 89.9428 36.4574 89.2269 35.1222C88.511 33.7869 88.153 32.1705 88.153 30.2727C88.153 28.3693 88.511 26.75 89.2269 25.4148C89.9428 24.0795 90.9172 23.0625 92.1502 22.3636C93.3832 21.6591 94.7752 21.3068 96.3263 21.3068C97.8661 21.3068 99.2525 21.6591 100.485 22.3636C101.724 23.0625 102.701 24.0795 103.417 25.4148C104.139 26.75 104.5 28.3693 104.5 30.2727ZM100.758 30.2727C100.758 29.0398 100.573 28 100.204 27.1534C99.8405 26.3068 99.3263 25.6648 98.6616 25.2273C97.9968 24.7898 97.2184 24.571 96.3263 24.571C95.4343 24.571 94.6559 24.7898 93.9911 25.2273C93.3263 25.6648 92.8093 26.3068 92.44 27.1534C92.0763 28 91.8945 29.0398 91.8945 30.2727C91.8945 31.5057 92.0763 32.5455 92.44 33.392C92.8093 34.2386 93.3263 34.8807 93.9911 35.3182C94.6559 35.7557 95.4343 35.9744 96.3263 35.9744C97.2184 35.9744 97.9968 35.7557 98.6616 35.3182C99.3263 34.8807 99.8405 34.2386 100.204 33.392C100.573 32.5455 100.758 31.5057 100.758 30.2727ZM121.593 21.5455V39H118.405L110.811 28.0142H110.684V39H106.993V21.5455H110.232L117.766 32.5227H117.919V21.5455H121.593ZM133.87 26.5653C133.802 25.8778 133.51 25.3437 132.993 24.9631C132.476 24.5824 131.774 24.392 130.888 24.392C130.285 24.392 129.777 24.4773 129.362 24.6477C128.947 24.8125 128.629 25.0426 128.407 25.3381C128.192 25.6335 128.084 25.9688 128.084 26.3438C128.072 26.6562 128.138 26.929 128.28 27.1619C128.427 27.3949 128.629 27.5966 128.885 27.767C129.14 27.9318 129.436 28.0767 129.771 28.2017C130.106 28.321 130.464 28.4233 130.845 28.5085L132.413 28.8835C133.174 29.054 133.873 29.2812 134.51 29.5653C135.146 29.8494 135.697 30.1989 136.163 30.6136C136.629 31.0284 136.99 31.517 137.245 32.0795C137.507 32.642 137.64 33.2869 137.646 34.0142C137.64 35.0824 137.368 36.0085 136.828 36.7926C136.294 37.571 135.521 38.1761 134.51 38.608C133.504 39.0341 132.291 39.2472 130.87 39.2472C129.461 39.2472 128.234 39.0312 127.189 38.5994C126.149 38.1676 125.336 37.5284 124.751 36.6818C124.172 35.8295 123.868 34.7756 123.839 33.5199H127.41C127.45 34.1051 127.618 34.5937 127.913 34.9858C128.214 35.3722 128.615 35.6648 129.115 35.8636C129.62 36.0568 130.192 36.1534 130.828 36.1534C131.453 36.1534 131.995 36.0625 132.456 35.8807C132.922 35.6989 133.282 35.446 133.538 35.1222C133.794 34.7983 133.922 34.4261 133.922 34.0057C133.922 33.6136 133.805 33.2841 133.572 33.017C133.345 32.75 133.01 32.5227 132.567 32.3352C132.129 32.1477 131.592 31.9773 130.956 31.8239L129.055 31.3466C127.584 30.9886 126.422 30.429 125.569 29.6676C124.717 28.9062 124.294 27.8807 124.299 26.5909C124.294 25.5341 124.575 24.6108 125.143 23.821C125.717 23.0312 126.504 22.4148 127.504 21.9716C128.504 21.5284 129.64 21.3068 130.913 21.3068C132.209 21.3068 133.339 21.5284 134.305 21.9716C135.277 22.4148 136.032 23.0312 136.572 23.821C137.112 24.6108 137.39 25.5256 137.407 26.5653H133.87Z" fill="white"/>
</svg>
